<svg width="745" height="2604" viewBox="0 0 745 2604" fill="none" xmlns="http://www.w3.org/2000/svg">
<rect x="274" y="182.074" width="197.158" height="444.926" fill="#C4C4C4"/>
<path d="M471.158 0L274 182.074H471.158L471.158 0Z" fill="#C4C4C4"/>
<path d="M326.522 298.057C326.522 272.621 347.142 252 372.579 252C398.016 252 418.637 272.621 418.637 298.057V578H326.522V298.057Z" fill="#FAFAFA" fill-opacity="0.56"/>
<rect x="175" y="627.411" width="395.125" height="604.589" fill="#E2E2E2"/>
<path d="M570.125 380L175 627.411H570.125L570.125 380Z" fill="#E2E2E2"/>
<path d="M263.883 759.73C263.883 746.461 274.639 735.705 287.908 735.705C301.177 735.705 311.934 746.461 311.934 759.73V1146H263.883V759.73Z" fill="black" fill-opacity="0.2"/>
<path d="M349.533 657.301C349.533 640.566 363.1 627 379.834 627C396.569 627 410.135 640.566 410.135 657.301V1146H349.533V657.301Z" fill="black" fill-opacity="0.2"/>
<path d="M444.073 601.837C444.073 588.672 454.745 578 467.909 578C481.074 578 491.746 588.672 491.746 601.837V1146H444.073V601.837Z" fill="black" fill-opacity="0.2"/>
<rect x="63" y="1216" width="619.756" height="694" fill="#F2F2F2"/>
<path d="M682.756 932L62.9999 1216H682.756L682.756 932Z" fill="#F2F2F2"/>
<path d="M145.419 1424.08C145.419 1397.53 166.944 1376 193.496 1376C220.049 1376 241.574 1397.53 241.574 1424.08V1874H145.419V1424.08Z" fill="black" fill-opacity="0.2"/>
<path d="M316.72 1317.01C316.72 1283.31 344.034 1256 377.726 1256C411.419 1256 438.732 1283.31 438.732 1317.01V1874H316.72V1317.01Z" fill="black" fill-opacity="0.2"/>
<path d="M504.99 1243.08C504.99 1216.53 526.515 1195 553.068 1195C579.62 1195 601.145 1216.53 601.145 1243.08V1874H504.99V1243.08Z" fill="black" fill-opacity="0.2"/>
<rect y="1910" width="745" height="694" fill="white"/>
<path d="M745 1626L0 1910H745L745 1626Z" fill="white"/>
<path d="M302.202 2081.21C302.202 2036.36 338.559 2000 383.408 2000C428.257 2000 464.615 2036.36 464.615 2081.21V2604H302.202V2081.21Z" fill="black" fill-opacity="0.2"/>
<path d="M553.498 1938.24C553.498 1902.76 582.258 1874 617.736 1874C653.214 1874 681.974 1902.76 681.974 1938.24V2604H553.498V1938.24Z" fill="black" fill-opacity="0.2"/>
<path d="M62.218 2161.24C62.218 2125.76 90.9784 2097 126.456 2097C161.934 2097 190.694 2125.76 190.694 2161.24V2604H62.218V2161.24Z" fill="black" fill-opacity="0.2"/>
</svg>
