<svg width="150" height="150" viewBox="0 0 150 150" fill="none" xmlns="http://www.w3.org/2000/svg">
<path d="M75 0C33.6424 0 0 33.6424 0 75C0 116.358 33.6424 150 75 150C116.358 150 150 116.358 150 75C150 60.1304 145.631 46.2695 138.141 34.6022L133.677 39.8756C139.856 50.1604 143.478 62.1522 143.478 75C143.478 112.758 112.758 143.478 75 143.478C37.2424 143.478 6.52174 112.758 6.52174 75C6.52174 37.2424 37.2424 6.52174 75 6.52174C92.7489 6.52174 108.893 13.3688 121.073 24.4884L125.34 19.4506C112.019 7.36906 94.3533 0 75 0ZM134.466 18.7627L71.4589 93.1131L44.9389 68.3764L40.4934 73.1467L72.013 102.545L139.447 22.9789L134.466 18.7627Z" fill="white"/>
</svg>
