<svg width="44" height="44" viewBox="0 0 44 44" fill="none" xmlns="http://www.w3.org/2000/svg">
<path d="M17.6699 7.5C19.5944 4.16667 24.4056 4.16667 26.3301 7.5L36.7224 25.5C38.6469 28.8333 36.2413 33 32.3923 33H11.6077C7.7587 33 5.35307 28.8333 7.27757 25.5L17.6699 7.5Z" fill="#B72B2B"/>
<path d="M20.4677 22.168L19.7237 11.2H24.1877L23.4437 22.168H20.4677ZM21.9557 28.192C21.2837 28.192 20.7317 27.976 20.2997 27.544C19.8677 27.112 19.6517 26.6 19.6517 26.008C19.6517 25.4 19.8677 24.896 20.2997 24.496C20.7317 24.08 21.2837 23.872 21.9557 23.872C22.6437 23.872 23.1957 24.08 23.6117 24.496C24.0437 24.896 24.2597 25.4 24.2597 26.008C24.2597 26.6 24.0437 27.112 23.6117 27.544C23.1957 27.976 22.6437 28.192 21.9557 28.192Z" fill="white"/>
</svg>
