<svg width="97" height="50" viewBox="0 0 97 50" fill="none" xmlns="http://www.w3.org/2000/svg">
<rect x="11" width="50" height="50" rx="25" fill="#FFC62C"/>
<rect x="40.8057" y="6.32703" width="26.5735" height="21.9336" rx="2" fill="white" stroke="black" stroke-width="4"/>
<line x1="40" y1="20" x2="30" y2="20" stroke="black" stroke-width="4"/>
<rect x="2" y="6.32703" width="26.5735" height="21.9336" rx="2" fill="white" stroke="black" stroke-width="4"/>
<path d="M74.9717 3.76801C74.9717 1.687 76.6587 0 78.7397 0C80.8207 0 82.5077 1.68699 82.5077 3.768V19.8063H74.9717V3.76801Z" fill="#FFC62C"/>
<path d="M74.9717 19.3112H97C97 21.2254 95.4482 22.7773 93.5339 22.7773H78.4378C76.5235 22.7773 74.9717 21.2254 74.9717 19.3112Z" fill="#FFC62C"/>
<path d="M81.9279 10.7002C81.9279 8.61918 83.6148 6.93219 85.6959 6.93219C87.7769 6.93219 89.4639 8.61918 89.4639 10.7002V19.3111H81.9279V10.7002Z" fill="#FFC62C"/>
<path d="M89.4639 11.1954C89.4639 9.11436 91.1509 7.42737 93.2319 7.42737C95.3129 7.42737 96.9999 9.11436 96.9999 11.1954V19.3111H89.4639V11.1954Z" fill="#FFC62C"/>
<path d="M87.3203 11.3886C88.8243 11.3886 90.0436 12.6079 90.0436 14.112C90.0436 15.616 88.8243 16.8353 87.3203 16.8353L74.9716 16.8353L74.9716 16.3886C74.9716 13.6272 77.2102 11.3886 79.9716 11.3886L87.3203 11.3886Z" fill="#D4A628"/>
<rect x="27" y="32" width="12" height="7" rx="2" fill="white"/>
</svg>
