<svg width="44" height="47" viewBox="0 0 44 47" fill="none" xmlns="http://www.w3.org/2000/svg">
<path d="M24.5 20.9019C26.5 22.0566 26.5 24.9434 24.5 26.0981L14.75 31.7272C12.75 32.8819 10.25 31.4386 10.25 29.1292L10.25 17.8708C10.25 15.5614 12.75 14.1181 14.75 15.2728L24.5 20.9019Z" fill="#2C2C2C"/>
<path d="M36.4113 0.0107422C40.6384 0.224824 44.0002 3.71967 44.0002 8V39L43.9894 39.4121C43.7819 43.5026 40.5019 46.7821 36.4113 46.9893L36.0002 47H20.4865C16.0682 47 12.4865 43.4183 12.4865 39V35.9844H17.4865V39C17.4865 40.6568 18.8297 42 20.4865 42H36.0002C37.657 41.9999 39.0002 40.6568 39.0002 39V8C39.0002 6.3432 37.657 5.00009 36.0002 5H20.4865C18.8297 5 17.4865 6.34315 17.4865 8V11.0156H12.4865V8C12.4865 3.71994 15.8477 0.22523 20.0744 0.0107422L20.4865 0H36.0002L36.4113 0.0107422Z" fill="#2C2C2C"/>
</svg>
